<svg width="201" height="64" viewBox="0 0 201 64" fill="none" xmlns="http://www.w3.org/2000/svg">
<path d="M48.4536 47.9766V62.8505H45.3301V53.0634L41.0464 59.8757H40.6597L36.4057 53.0932V62.8505H33.2822V47.9766H36.5545L40.8679 54.8483L45.1813 47.9766H48.4536Z" fill="#602B7A"/>
<path d="M63.9452 47.9766H67.158V62.8505H63.9452V60.7086C62.7355 62.3943 61.0002 63.2372 58.7394 63.2372C56.6967 63.2372 54.9515 62.4836 53.5038 60.9764C52.056 59.4493 51.3322 57.595 51.3322 55.4135C51.3322 53.2122 52.056 51.3579 53.5038 49.8507C54.9515 48.3435 56.6967 47.5898 58.7394 47.5898C61.0002 47.5898 62.7355 48.4228 63.9452 50.0887V47.9766ZM55.8836 58.8345C56.776 59.7269 57.8965 60.1732 59.2451 60.1732C60.5936 60.1732 61.7141 59.7269 62.6066 58.8345C63.499 57.9222 63.9452 56.7819 63.9452 55.4135C63.9452 54.0451 63.499 52.9147 62.6066 52.0223C61.7141 51.11 60.5936 50.6539 59.2451 50.6539C57.8965 50.6539 56.776 51.11 55.8836 52.0223C54.9911 52.9147 54.5449 54.0451 54.5449 55.4135C54.5449 56.7819 54.9911 57.9222 55.8836 58.8345Z" fill="#602B7A"/>
<path d="M82.2664 47.9766V51.0703H77.4175V62.8505H74.2047V51.0703H69.3261V47.9766H82.2664Z" fill="#602B7A"/>
<path d="M86.3879 56.7819C86.6258 57.9123 87.1712 58.7849 88.024 59.3997C88.8768 59.9947 89.9179 60.2922 91.1475 60.2922C92.853 60.2922 94.1322 59.6774 94.985 58.4478L97.6325 59.9947C96.165 62.1563 93.9934 63.2372 91.1178 63.2372C88.6983 63.2372 86.7448 62.5034 85.2574 61.0358C83.7701 59.5485 83.0264 57.6743 83.0264 55.4135C83.0264 53.1923 83.7601 51.3381 85.2277 49.8507C86.6952 48.3435 88.5793 47.5898 90.8798 47.5898C93.0613 47.5898 94.8461 48.3534 96.2344 49.8804C97.6424 51.4075 98.3465 53.2618 98.3465 55.4433C98.3465 55.7804 98.3068 56.2266 98.2275 56.7819H86.3879ZM86.3581 54.1641H95.104C94.8858 52.9544 94.3801 52.0421 93.5868 51.4273C92.8134 50.8125 91.9011 50.5051 90.85 50.5051C89.6601 50.5051 88.6685 50.8324 87.8752 51.4868C87.082 52.1413 86.5763 53.0337 86.3581 54.1641Z" fill="#602B7A"/>
<path d="M116.345 47.9766V62.8505H113.221V53.0634L108.938 59.8757H108.551L104.297 53.0932V62.8505H101.173V47.9766H104.446L108.759 54.8483L113.073 47.9766H116.345Z" fill="#602B7A"/>
<path d="M131.836 47.9766H135.049V62.8505H131.836V60.7086C130.627 62.3943 128.891 63.2372 126.631 63.2372C124.588 63.2372 122.843 62.4836 121.395 60.9764C119.947 59.4493 119.223 57.595 119.223 55.4135C119.223 53.2122 119.947 51.3579 121.395 49.8507C122.843 48.3435 124.588 47.5898 126.631 47.5898C128.891 47.5898 130.627 48.4228 131.836 50.0887V47.9766ZM123.775 58.8345C124.667 59.7269 125.788 60.1732 127.136 60.1732C128.485 60.1732 129.605 59.7269 130.498 58.8345C131.39 57.9222 131.836 56.7819 131.836 55.4135C131.836 54.0451 131.39 52.9147 130.498 52.0223C129.605 51.11 128.485 50.6539 127.136 50.6539C125.788 50.6539 124.667 51.11 123.775 52.0223C122.882 52.9147 122.436 54.0451 122.436 55.4135C122.436 56.7819 122.882 57.9222 123.775 58.8345Z" fill="#602B7A"/>
<path d="M150.158 47.9766V51.0703H145.309V62.8505H142.096V51.0703H137.217V47.9766H150.158Z" fill="#602B7A"/>
<path d="M163.1 47.9766H165.569V62.8505H162.416V53.3907L154.801 62.8505H152.332V47.9766H155.485V57.4066L163.1 47.9766Z" fill="#602B7A"/>
<path d="M182.446 62.8505H178.608L172.51 55.9787V62.8505H169.297V47.9766H172.51V54.5508L178.281 47.9766H182.208L175.663 55.2648L182.446 62.8505Z" fill="#602B7A"/>
<path d="M195.196 47.9766H198.409V62.8505H195.196V60.7086C193.986 62.3943 192.251 63.2372 189.99 63.2372C187.947 63.2372 186.202 62.4836 184.754 60.9764C183.307 59.4493 182.583 57.595 182.583 55.4135C182.583 53.2122 183.307 51.3579 184.754 49.8507C186.202 48.3435 187.947 47.5898 189.99 47.5898C192.251 47.5898 193.986 48.4228 195.196 50.0887V47.9766ZM187.134 58.8345C188.027 59.7269 189.147 60.1732 190.496 60.1732C191.844 60.1732 192.965 59.7269 193.857 58.8345C194.75 57.9222 195.196 56.7819 195.196 55.4135C195.196 54.0451 194.75 52.9147 193.857 52.0223C192.965 51.11 191.844 50.6539 190.496 50.6539C189.147 50.6539 188.027 51.11 187.134 52.0223C186.242 52.9147 185.795 54.0451 185.795 55.4135C185.795 56.7819 186.242 57.9222 187.134 58.8345Z" fill="#602B7A"/>
<path d="M21.1973 27.5225L30.731 37.0713L21.2378 46.5797L11.704 37.0308L21.1973 27.5225Z" fill="#602B7A"/>
<path d="M0.939453 0.222656H200.939V37.0953H0.939453V0.222656Z" fill="#602B7A"/>
<path d="M45.3511 11.1742V26.1439H42.1503V14.2879H37.2008V19.8566C37.2008 22.2318 36.6871 23.9184 35.6597 24.9164C34.6322 25.9144 33.1701 26.3235 31.2733 26.1439V23.12C32.1822 23.2797 32.8639 23.0901 33.3183 22.5512C33.7727 22.0123 34 21.0642 34 19.707V11.1742H45.3511Z" fill="white"/>
<path d="M59.0096 11.1742V14.2879H52.2819V26.1439H49.0811V11.1742H59.0096Z" fill="white"/>
<path d="M67.5948 26.5331C65.4214 26.5331 63.574 25.7747 62.0526 24.2577C60.5312 22.7408 59.7705 20.8746 59.7705 18.6591C59.7705 16.4436 60.5312 14.5773 62.0526 13.0604C63.574 11.5435 65.4214 10.785 67.5948 10.785C69.788 10.785 71.6354 11.5435 73.137 13.0604C74.6584 14.5773 75.4191 16.4436 75.4191 18.6591C75.4191 20.8746 74.6584 22.7408 73.137 24.2577C71.6354 25.7747 69.788 26.5331 67.5948 26.5331ZM64.305 22.0422C65.1942 22.9404 66.2907 23.3895 67.5948 23.3895C68.8988 23.3895 69.9955 22.9404 70.8846 22.0422C71.7737 21.144 72.2183 20.0163 72.2183 18.6591C72.2183 17.3018 71.7737 16.1741 70.8846 15.2759C69.9955 14.3777 68.8988 13.9287 67.5948 13.9287C66.2907 13.9287 65.1942 14.3777 64.305 15.2759C63.4159 16.1741 62.9713 17.3018 62.9713 18.6591C62.9713 20.0163 63.4159 21.144 64.305 22.0422Z" fill="white"/>
<path d="M85.9931 10.785C88.0282 10.785 89.767 11.5535 91.2093 13.0904C92.6517 14.6073 93.3729 16.4635 93.3729 18.6591C93.3729 20.8746 92.6517 22.7408 91.2093 24.2577C89.767 25.7747 88.0282 26.5331 85.9931 26.5331C83.7406 26.5331 82.0116 25.6948 80.8064 24.0182V31.0681H77.6055V11.1742H80.8064V13.3299C82.0116 11.6333 83.7406 10.785 85.9931 10.785ZM82.1401 22.1021C83.0292 23.0003 84.1457 23.4494 85.4892 23.4494C86.8328 23.4494 87.9492 23.0003 88.8383 22.1021C89.7274 21.184 90.172 20.0363 90.172 18.6591C90.172 17.2819 89.7274 16.1442 88.8383 15.246C87.9492 14.3278 86.8328 13.8688 85.4892 13.8688C84.1457 13.8688 83.0292 14.3278 82.1401 15.246C81.251 16.1442 80.8064 17.2819 80.8064 18.6591C80.8064 20.0363 81.251 21.184 82.1401 22.1021Z" fill="white"/>
<path d="M106.295 11.1742H108.755V26.1439H105.613V16.6232L98.0259 26.1439H95.5659V11.1742H98.7076V20.665L106.295 11.1742Z" fill="white"/>
<path d="M123.79 11.1742V14.2879H118.959V26.1439H115.759V14.2879H110.898V11.1742H123.79Z" fill="white"/>
<path d="M141.071 11.1742V26.1439H137.959V16.2939L133.692 23.15H133.306L129.068 16.3238V26.1439H125.956V11.1742H129.216L133.514 18.0902L137.811 11.1742H141.071Z" fill="white"/>
<path d="M155.498 11.1742H157.958V26.1439H154.816V16.6232L147.229 26.1439H144.769V11.1742H147.911V20.665L155.498 11.1742Z" fill="white"/>
<path d="M174.418 26.1439H170.594L164.519 19.2279V26.1439H161.318V11.1742H164.519V17.7908L170.268 11.1742H174.18L167.66 18.5094L174.418 26.1439Z" fill="white"/>
<path d="M186.413 11.1742H189.613V26.1439H186.413V23.9883C185.207 25.6848 183.478 26.5331 181.226 26.5331C179.191 26.5331 177.452 25.7747 176.01 24.2577C174.567 22.7208 173.846 20.8546 173.846 18.6591C173.846 16.4436 174.567 14.5773 176.01 13.0604C177.452 11.5435 179.191 10.785 181.226 10.785C183.478 10.785 185.207 11.6233 186.413 13.2999V11.1742ZM178.381 22.1021C179.27 23.0003 180.386 23.4494 181.73 23.4494C183.073 23.4494 184.19 23.0003 185.079 22.1021C185.968 21.184 186.413 20.0363 186.413 18.6591C186.413 17.2819 185.968 16.1442 185.079 15.246C184.19 14.3278 183.073 13.8688 181.73 13.8688C180.386 13.8688 179.27 14.3278 178.381 15.246C177.492 16.1442 177.047 17.2819 177.047 18.6591C177.047 20.0363 177.492 21.184 178.381 22.1021Z" fill="white"/>
<path d="M26.9997 26.1439L25.1869 21.9225H17.0453L15.2633 26.1439H11.5586L19.3462 6.25H22.886L30.6748 26.1439H26.9997ZM18.1073 18.689H24.125L21.1161 10.3273L18.1073 18.689Z" fill="white"/>
</svg>
