<svg width="856" height="3265" viewBox="0 0 856 3265" fill="none" xmlns="http://www.w3.org/2000/svg">
<path d="M732.464 921C732.464 1014.11 751.428 3265 751.428 3265H90.0352C90.0352 3265 112.464 1014.11 112.464 921C112.464 756.971 251.255 624 422.464 624C593.672 624 732.464 756.971 732.464 921Z" fill="#E7F6F7"/>
<g opacity="0.5">
<mask id="mask0" mask-type="alpha" maskUnits="userSpaceOnUse" x="271" y="55" width="379" height="379">
<circle cx="460.543" cy="244.449" r="140.326" transform="rotate(117.15 460.543 244.449)" fill="#1C90D2"/>
</mask>
<g mask="url(#mask0)">
<rect x="459.571" y="452.844" width="28.2084" height="410.65" transform="rotate(-167.85 459.571 452.844)" fill="#CEECEF"/>
<rect x="432.72" y="425.393" width="28.2084" height="410.65" transform="rotate(-167.85 432.72 425.393)" fill="#CEECEF"/>
<rect x="395.841" y="426.426" width="27.4747" height="410.65" transform="rotate(-167.85 395.841 426.426)" fill="#CEECEF"/>
<rect x="346.804" y="431.607" width="23.1306" height="410.65" transform="rotate(-167.85 346.804 431.607)" fill="#CEECEF"/>
<rect x="305.551" y="437.041" width="17.9958" height="410.65" transform="rotate(-167.85 305.551 437.041)" fill="#CEECEF"/>
<rect x="494.308" y="462.469" width="33.7991" height="410.65" transform="rotate(-167.85 494.308 462.469)" fill="#CEECEF"/>
<rect x="554.77" y="379.559" width="40.8935" height="237.57" transform="rotate(-167.85 554.77 379.559)" fill="#CEECEF"/>
<rect x="568.746" y="492.529" width="36.8143" height="410.65" transform="rotate(-167.85 568.746 492.529)" fill="#CEECEF"/>
<circle r="119.409" transform="matrix(0.456324 -0.889814 -0.889814 -0.456324 452.492 262.195)" fill="white"/>
</g>
<mask id="mask1" mask-type="alpha" maskUnits="userSpaceOnUse" x="262" y="251" width="258" height="258">
<circle cx="390.995" cy="380.064" r="95.3642" transform="rotate(117.15 390.995 380.064)" fill="#FAAB45"/>
</mask>
<g mask="url(#mask1)">
<path d="M467.775 301.077L505.098 334.86L463.199 336.946L500.56 370.763L458.624 372.851L495.853 406.548L454.044 408.63L491.281 442.336L449.607 444.41" stroke="#CEECEF" stroke-width="9.81974"/>
<path d="M421.985 284.353L459.308 318.137L417.409 320.222L454.769 354.04L412.834 356.127L450.062 389.825L408.253 391.906L445.491 425.612L403.817 427.687L440.908 461.26L399.23 463.335L436.475 497.047L394.65 499.129L431.744 532.706L390.135 534.777L425.375 566.675" stroke="#CEECEF" stroke-width="9.81974"/>
<path d="M376.195 267.631L413.518 301.414L371.619 303.5L408.979 337.317L367.044 339.405L404.272 373.102L362.463 375.183L399.701 408.889L358.027 410.964L395.118 444.537L353.44 446.612L390.685 480.325L348.86 482.407L385.954 515.983L344.345 518.054L379.585 549.953" stroke="#CEECEF" stroke-width="9.81974"/>
<path d="M330.405 250.906L367.728 284.689L325.829 286.775L363.189 320.592L321.254 322.68L358.482 356.378L316.673 358.459L353.911 392.165L312.237 394.239L349.328 427.813L307.65 429.887L344.895 463.6L303.07 465.682L340.164 499.259L298.555 501.33L333.795 533.228" stroke="#CEECEF" stroke-width="9.81974"/>
<path d="M312.692 339.655L270.883 341.736L308.12 375.442L266.447 377.517L303.538 411.09L261.859 413.165L299.104 446.877L257.279 448.959L294.374 482.536L252.764 484.607L288.005 516.505" stroke="#CEECEF" stroke-width="9.81974"/>
<path d="M238.825 217.461L276.148 251.244L234.249 253.33L271.609 287.147L229.674 289.235L266.902 322.932L225.093 325.013L262.331 358.72L220.657 360.794L257.748 394.367L216.07 396.442L253.315 430.155L211.49 432.237L248.584 465.813L206.975 467.885L242.215 499.783" stroke="#CEECEF" stroke-width="9.81974"/>
<circle cx="390.994" cy="380.063" r="71.7801" transform="rotate(117.15 390.994 380.063)" fill="white"/>
</g>
<circle cx="420.776" cy="278.068" r="11.4258" transform="rotate(117.15 420.776 278.068)" fill="#CEECEF"/>
<circle cx="620.634" cy="235.681" r="7.14878" transform="rotate(117.15 620.634 235.681)" fill="#CEECEF"/>
<circle cx="336.192" cy="486.925" r="68.4241" transform="rotate(117.15 336.192 486.925)" fill="#CEECEF"/>
<mask id="mask2" mask-type="alpha" maskUnits="userSpaceOnUse" x="244" y="394" width="185" height="186">
<circle cx="336.193" cy="486.925" r="68.4241" transform="rotate(117.15 336.193 486.925)" fill="white"/>
</mask>
<g mask="url(#mask2)">
<circle cx="336.193" cy="486.925" r="65.1508" transform="rotate(117.15 336.193 486.925)" fill="#CEECEF" stroke="#CEECEF" stroke-width="6.54649"/>
<circle cx="336.192" cy="486.926" r="54.5296" transform="rotate(117.15 336.192 486.926)" stroke="#CEECEF" stroke-width="6.54649"/>
<circle cx="336.193" cy="486.926" r="43.5751" transform="rotate(117.15 336.193 486.926)" stroke="#CEECEF" stroke-width="6.54649"/>
</g>
<circle cx="292.059" cy="573.511" r="50.1225" transform="rotate(117.15 292.059 573.511)" fill="#CEECEF"/>
<circle cx="292.059" cy="573.511" r="45.2519" transform="rotate(117.15 292.059 573.511)" fill="#CEECEF"/>
<circle cx="292.059" cy="573.511" r="23.1611" transform="rotate(117.15 292.059 573.511)" fill="#CEECEF"/>
<mask id="mask3" mask-type="alpha" maskUnits="userSpaceOnUse" x="224" y="506" width="136" height="135">
<circle cx="292.059" cy="573.511" r="50.1225" transform="rotate(117.15 292.059 573.511)" fill="#F55277"/>
</mask>
<g mask="url(#mask3)">
<path d="M260.064 500.585C260.064 500.585 269.805 512.119 266.103 527.786C261.629 546.722 249.203 544.313 244.343 561.259C239.658 577.594 252.98 583.771 251.142 599.626C249.432 614.378 233.813 623.915 233.813 623.915" stroke="#CEECEF" stroke-width="6.54649"/>
<path d="M272.104 501.003C272.104 501.003 281.845 512.537 278.143 528.204C273.669 547.14 261.243 544.731 256.383 561.677C251.698 578.012 265.02 584.189 263.182 600.044C261.472 614.796 245.853 624.333 245.853 624.333" stroke="#CEECEF" stroke-width="6.54649"/>
<path d="M284.143 501.423C284.143 501.423 293.884 512.957 290.182 528.624C285.708 547.56 273.282 545.151 268.422 562.097C263.737 578.432 277.059 584.609 275.221 600.464C273.511 615.216 257.892 624.753 257.892 624.753" stroke="#CEECEF" stroke-width="6.54649"/>
<path d="M296.184 501.843C296.184 501.843 305.925 513.377 302.223 529.043C297.749 547.98 285.323 545.571 280.463 562.517C275.778 578.852 289.1 585.029 287.262 600.884C285.552 615.636 269.933 625.173 269.933 625.173" stroke="#CEECEF" stroke-width="6.54649"/>
<path d="M308.223 502.261C308.223 502.261 317.964 513.795 314.263 529.461C309.788 548.398 297.362 545.989 292.502 562.935C287.817 579.27 301.139 585.447 299.301 601.302C297.591 616.054 281.972 625.591 281.972 625.591" stroke="#CEECEF" stroke-width="6.54649"/>
<path d="M320.263 502.681C320.263 502.681 330.004 514.215 326.303 529.881C321.828 548.818 309.402 546.408 304.542 563.355C299.857 579.69 313.179 585.867 311.341 601.722C309.631 616.474 294.012 626.011 294.012 626.011" stroke="#CEECEF" stroke-width="6.54649"/>
<path d="M332.303 503.101C332.303 503.101 342.044 514.635 338.343 530.301C333.868 549.238 321.442 546.828 316.582 563.775C311.897 580.11 325.219 586.287 323.381 602.142C321.671 616.894 306.052 626.431 306.052 626.431" stroke="#CEECEF" stroke-width="6.54649"/>
<path d="M344.342 503.519C344.342 503.519 354.083 515.053 350.382 530.719C345.907 549.656 333.482 547.246 328.621 564.193C323.936 580.528 337.258 586.705 335.42 602.559C333.71 617.312 318.092 626.849 318.092 626.849" stroke="#CEECEF" stroke-width="6.54649"/>
<path d="M356.382 503.939C356.382 503.939 366.124 515.473 362.422 531.139C357.947 550.076 345.522 547.666 340.661 564.613C335.976 580.948 349.298 587.125 347.46 602.979C345.75 617.732 330.132 627.269 330.132 627.269" stroke="#CEECEF" stroke-width="6.54649"/>
</g>
<circle cx="303.283" cy="637.238" r="5.21781" transform="rotate(117.15 303.283 637.238)" fill="#CEECEF"/>
<circle cx="514.077" cy="344.629" r="7.07774" transform="rotate(117.15 514.077 344.629)" fill="#CEECEF"/>
<path d="M547.465 85.759C547.324 84.4106 546.117 83.4316 544.768 83.5725C543.42 83.7134 542.441 84.9208 542.582 86.2693L547.465 85.759ZM249.441 659.687L263.563 635.108L235.216 635.168L249.441 659.687ZM545.024 86.0141C542.582 86.2693 542.582 86.2692 542.582 86.2694C542.582 86.2701 542.582 86.2707 542.582 86.2719C542.582 86.2744 542.583 86.2783 542.583 86.2838C542.585 86.2948 542.586 86.3119 542.589 86.335C542.593 86.3812 542.6 86.4515 542.609 86.5451C542.628 86.7324 542.655 87.0131 542.688 87.3817C542.755 88.119 542.849 89.2078 542.954 90.604C543.165 93.3967 543.422 97.4173 543.609 102.313C543.982 112.11 544.068 125.381 542.928 139.313C541.786 153.264 539.424 167.766 534.951 180.074C530.465 192.42 523.981 202.225 514.823 207.286L517.198 211.583C527.85 205.696 534.897 194.599 539.566 181.751C544.248 168.865 546.662 153.88 547.821 139.713C548.982 125.527 548.893 112.049 548.515 102.126C548.326 97.1615 548.065 93.0795 547.85 90.2346C547.743 88.812 547.647 87.6982 547.578 86.9376C547.543 86.5573 547.515 86.2652 547.496 86.067C547.486 85.9679 547.479 85.8922 547.474 85.8406C547.471 85.8148 547.469 85.7951 547.467 85.7815C547.467 85.7747 547.466 85.7694 547.466 85.7656C547.466 85.7638 547.465 85.7621 547.465 85.7612C547.465 85.7599 547.465 85.759 545.024 86.0141ZM514.823 207.286C495.673 217.869 475.539 215.845 454.818 216.664C444.585 217.069 434.3 218.201 424.384 222.178C414.42 226.173 404.963 232.983 396.274 244.533L400.198 247.485C408.375 236.615 417.121 230.38 426.211 226.735C435.349 223.071 444.971 221.967 455.012 221.57C474.839 220.787 496.726 222.896 517.198 211.583L514.823 207.286ZM396.274 244.533C378.619 268.003 385.476 291.851 390.497 317.895C395.547 344.089 399.182 373.628 377.365 410.652L381.595 413.144C404.31 374.597 400.456 343.612 395.318 316.965C390.151 290.167 384.12 268.857 400.198 247.485L396.274 244.533ZM377.365 410.652C366.555 428.995 353.697 437.003 339.8 439.823C325.702 442.685 310.307 440.268 294.296 437.162C278.471 434.092 261.999 430.333 246.47 431.033C230.751 431.741 215.853 437.011 203.155 451.935L206.894 455.117C218.563 441.402 232.09 436.596 246.692 435.938C261.484 435.271 277.23 438.853 293.361 441.982C309.306 445.075 325.603 447.715 340.776 444.635C356.149 441.515 370.139 432.586 381.595 413.144L377.365 410.652ZM203.155 451.935C191.711 465.384 188.296 479.859 189.772 494.932C191.235 509.877 197.501 525.375 205.269 541.062C209.161 548.922 213.464 556.894 217.772 564.905C222.088 572.93 226.412 581.001 230.388 589.125C238.348 605.39 244.821 621.696 246.961 637.917L251.828 637.275C249.584 620.262 242.834 603.389 234.798 586.967C230.775 578.747 226.408 570.597 222.096 562.579C217.777 554.548 213.517 546.655 209.669 538.883C201.955 523.306 196.031 508.471 194.658 494.454C193.298 480.566 196.401 467.449 206.894 455.117L203.155 451.935Z" fill="#CEECEF"/>
</g>
<ellipse cx="427.964" cy="1392" rx="313.5" ry="285" stroke="#B9E2E7" stroke-width="2" stroke-linecap="round" stroke-linejoin="round" stroke-dasharray="4.24 4.24"/>
<ellipse cx="427.963" cy="1392" rx="426.963" ry="388.148" stroke="#B9E2E7" stroke-width="2" stroke-linecap="round" stroke-linejoin="round" stroke-dasharray="4.24 4.24"/>
<ellipse cx="427.964" cy="1392" rx="288.642" ry="262.402" fill="#B9E2E7"/>
<ellipse cx="422.964" cy="1395" rx="288.642" ry="262.402" fill="#B9E2E7"/>
</svg>
